HIERARCHY
ROOT joint_0
{
	OFFSET 0.000000 0.000000 0.000000
	CHANNELS 6 Xposition Yposition Zposition Zrotation Yrotation Xrotation 
	JOINT joint_1
	{
		OFFSET 0.587158 0.057678 95.682007
		CHANNELS 3 Zrotation Yrotation Xrotation
		JOINT joint_2
		{
			OFFSET -7.116699 -0.219910 87.157959
			CHANNELS 3 Zrotation Yrotation Xrotation
			JOINT joint_3
			{
				OFFSET -5.892822 -0.290222 87.151001
				CHANNELS 3 Zrotation Yrotation Xrotation
				JOINT joint_4
				{
					OFFSET 5.544678 -0.099609 123.768066
					CHANNELS 3 Zrotation Yrotation Xrotation
					JOINT joint_5
					{
						OFFSET 41.981201 4.519775 84.257935
						CHANNELS 3 Zrotation Yrotation Xrotation
						End Site
						{
							OFFSET 0.000000 0.000000 0.000000
						}
					}
				}
				JOINT joint_6
				{
					OFFSET 3.940918 -26.976501 69.308105
					CHANNELS 3 Zrotation Yrotation Xrotation
					JOINT joint_7
					{
						OFFSET 4.776123 -152.592468 -16.842041
						CHANNELS 3 Zrotation Yrotation Xrotation
						JOINT joint_8
						{
							OFFSET 54.421875 -30.424072 -248.864014
							CHANNELS 3 Zrotation Yrotation Xrotation
							JOINT joint_9
							{
								OFFSET 42.120117 -33.387878 -236.524963
								CHANNELS 3 Zrotation Yrotation Xrotation
								End Site
								{
									OFFSET 0.000000 0.000000 0.000000
								}
							}
						}
					}
				}
				JOINT joint_10
				{
					OFFSET 2.312012 26.904114 69.425049
					CHANNELS 3 Zrotation Yrotation Xrotation
					JOINT joint_11
					{
						OFFSET 0.971436 152.197815 -20.626953
						CHANNELS 3 Zrotation Yrotation Xrotation
						JOINT joint_12
						{
							OFFSET 49.954102 28.991455 -249.970093
							CHANNELS 3 Zrotation Yrotation Xrotation
							JOINT joint_13
							{
								OFFSET 48.146973 19.598389 -236.919922
								CHANNELS 3 Zrotation Yrotation Xrotation
								End Site
								{
									OFFSET 0.000000 0.000000 0.000000
								}
							}
						}
					}
				}
			}
		}
	}
	JOINT joint_14
	{
		OFFSET 16.305664 -89.442932 -108.224976
		CHANNELS 3 Zrotation Yrotation Xrotation
		JOINT joint_15
		{
			OFFSET -22.282471 13.437134 -412.904968
			CHANNELS 3 Zrotation Yrotation Xrotation
			JOINT joint_16
			{
				OFFSET -45.426025 14.484802 -445.892029
				CHANNELS 3 Zrotation Yrotation Xrotation
				JOINT joint_17
				{
					OFFSET 173.389404 -9.944031 -76.473001
					CHANNELS 3 Zrotation Yrotation Xrotation
					End Site
					{
						OFFSET 0.000000 0.000000 0.000000
					}
				}
			}
		}
	}
	JOINT joint_18
	{
		OFFSET 13.392822 89.408875 -108.653992
		CHANNELS 3 Zrotation Yrotation Xrotation
		JOINT joint_19
		{
			OFFSET -29.032959 24.483521 -411.977966
			CHANNELS 3 Zrotation Yrotation Xrotation
			JOINT joint_20
			{
				OFFSET -30.530029 28.986328 -446.453018
				CHANNELS 3 Zrotation Yrotation Xrotation
				JOINT joint_21
				{
					OFFSET 170.330078 33.400757 -76.698997
					CHANNELS 3 Zrotation Yrotation Xrotation
					End Site
					{
						OFFSET 0.000000 0.000000 0.000000
					}
				}
			}
		}
	}
}
MOTION
Frames: 14
Frame Time: 0.016667
-1808.346069 1024.105469 1057.527954 -11.178087 -1.600904 -0.481257 0.004271 4.031628 1.771351 -0.175064 -0.930795 -0.493254 -0.115707 0.917021 0.297979 -1.521527 -4.686744 3.598682 0.000000 0.000000 0.000000 -2.686936 7.185175 -1.803830 4.684984 6.973247 -2.319430 11.433052 -63.430998 1.438353 0.000000 0.000000 0.000000 1.254872 4.299775 -0.154933 8.089977 4.671961 6.486254 -3.426798 -48.004932 -20.271123 0.000000 0.000000 0.000000 -2.660640 -1.566514 -4.042509 -2.768984 5.525295 0.092814 -2.990718 -1.286498 -1.374665 0.000000 0.000000 0.000000 2.218205 -4.170846 4.251052 3.007363 6.736891 0.880089 2.436986 -0.071178 1.099632 0.000000 0.000000 0.000000 
-1809.088867 1025.145874 1057.781982 -11.173796 -1.618578 -0.479007 0.077936 4.154260 1.800715 -0.099532 -0.984659 -0.475040 -0.041813 0.932876 0.291203 -1.455345 -4.426059 3.374981 0.000000 0.000000 0.000000 -3.402635 7.216149 -2.316507 5.379324 7.166955 -2.799192 12.799689 -75.949467 0.631047 0.000000 0.000000 0.000000 1.613204 4.109268 0.466366 9.649222 4.222309 7.046917 -3.684454 -57.043122 -24.052496 0.000000 0.000000 0.000000 -2.597738 -2.555792 -4.288805 -2.684930 7.316336 0.374934 -3.056202 -1.823126 -1.431407 0.000000 0.000000 0.000000 2.352013 -4.960312 4.249285 3.265867 8.146066 0.778314 2.491271 -0.991275 1.303009 0.000000 0.000000 0.000000 
-1809.826538 1026.594238 1058.123047 -11.285799 -1.631696 -0.483218 0.197109 4.211161 1.819691 0.018839 -1.019038 -0.424331 0.073129 0.927659 0.273651 -1.398821 -4.038886 3.154188 0.000000 0.000000 0.000000 -4.076342 6.549953 -2.786804 5.627248 6.821503 -3.774048 13.969594 -88.300570 0.388921 0.000000 0.000000 0.000000 1.896027 3.413077 1.104098 11.388741 3.107392 7.528401 -3.741979 -65.667085 -27.661542 0.000000 0.000000 0.000000 -2.445116 -3.923689 -4.647296 -2.518288 9.763294 0.828177 -3.132728 -2.471952 -1.497318 0.000000 0.000000 0.000000 2.546741 -5.726494 4.160011 3.578065 9.530217 0.799062 2.604585 -1.990168 1.547278 0.000000 0.000000 0.000000 
-1810.232910 1028.381348 1058.076050 -11.422501 -1.732790 -0.420598 0.368905 4.443879 1.763838 0.168466 -1.056866 -0.431225 0.225423 0.926070 0.252999 -1.383448 -3.810962 3.054927 0.000000 0.000000 0.000000 -4.117929 5.266175 -3.248498 4.873687 5.947291 -5.073711 -165.542701 -81.854574 -178.923930 0.000000 0.000000 0.000000 1.603429 2.497759 1.478411 13.457219 1.724173 8.189940 -3.436546 -73.074482 -30.902791 0.000000 0.000000 0.000000 -2.223646 -5.591762 -5.248089 -2.307398 12.940711 1.533777 -3.290749 -3.121082 -1.595278 0.000000 0.000000 0.000000 2.698559 -6.144418 3.943579 3.826488 10.508862 0.874792 2.715359 -2.812638 1.754855 0.000000 0.000000 0.000000 
-1810.125488 1030.759399 1057.435059 -11.683867 -2.010951 -0.104082 0.654924 4.857907 1.299701 0.403395 -1.041908 -0.393973 0.455546 0.911908 0.210311 -1.436143 -3.810505 3.162474 0.000000 0.000000 0.000000 -2.632993 4.341454 -3.329295 1.683985 5.092540 -8.217394 -166.659726 -73.450043 -176.673852 0.000000 0.000000 0.000000 0.239930 2.099204 1.306790 16.269413 0.891140 9.861159 -2.530574 -80.773655 -33.772745 0.000000 0.000000 0.000000 -1.850086 -7.515999 -6.384074 -1.995523 16.950402 2.624343 -3.531055 -3.694492 -1.718815 0.000000 0.000000 0.000000 2.833701 -5.927810 3.317752 3.989921 10.805066 1.092206 2.840137 -3.369406 1.915401 0.000000 0.000000 0.000000 
-1809.687622 1033.475220 1056.406006 -11.981550 -2.346829 0.402082 1.017478 5.398188 0.511299 0.641912 -1.006153 -0.207882 0.655553 0.906784 0.101430 -1.470051 -3.982696 3.277444 0.000000 0.000000 0.000000 -0.384688 3.232595 -3.031209 -3.101503 3.695416 -12.304758 -169.122620 -66.212952 -173.628084 0.000000 0.000000 0.000000 -1.604897 1.522551 0.926455 19.604514 -0.043944 11.922608 -1.150266 -88.152604 -36.630612 0.000000 0.000000 0.000000 -1.309786 -9.745798 -7.918294 -1.542791 21.594751 4.012448 -3.837178 -3.919755 -1.841628 0.000000 0.000000 0.000000 2.951077 -5.393667 2.410622 4.086347 10.694708 1.378618 2.964687 -3.728554 2.035592 0.000000 0.000000 0.000000 
-1809.144531 1035.700928 1055.133057 -11.997805 -2.492138 0.816685 1.387353 6.145049 -0.098871 0.721999 -1.074161 -0.024704 0.664486 0.987144 -0.004628 -1.413963 -4.387148 3.251023 0.000000 0.000000 0.000000 0.494432 0.097108 -3.470241 -6.014893 1.122913 -13.188607 -170.660563 -63.195098 -170.848485 0.000000 0.000000 0.000000 -2.971473 -0.922673 1.191364 22.559920 -2.498466 12.393138 -179.941663 -88.951153 139.330422 0.000000 0.000000 0.000000 -0.757426 -12.451538 -9.407552 -1.014535 26.619589 5.492936 -4.208121 -3.427467 -1.938367 0.000000 0.000000 0.000000 2.911496 -5.139109 1.770608 4.091514 10.632245 1.418224 3.013129 -3.902866 2.084167 0.000000 0.000000 0.000000 
-1809.756958 1037.081055 1053.156006 -11.545443 -2.459968 1.060790 1.809726 7.299722 -0.393361 0.551208 -1.302534 0.101831 0.386531 1.217463 -0.064602 -1.237414 -5.113893 3.017321 0.000000 0.000000 0.000000 -1.839772 -6.822553 -4.809727 -4.106532 -2.608424 -8.007957 -169.222432 -67.175967 -168.749054 0.000000 0.000000 0.000000 -3.243463 -7.172830 1.786316 24.841135 -7.840769 10.832000 0.970215 -84.480296 -48.482264 0.000000 0.000000 0.000000 -0.268522 -15.895872 -10.867300 -0.386730 32.471565 7.179147 -4.620581 -1.557846 -1.948383 0.000000 0.000000 0.000000 2.595795 -5.352212 1.609144 3.977282 10.790493 1.072787 2.955044 -3.810518 2.030797 0.000000 0.000000 0.000000 
-1810.264282 1037.970093 1050.936035 -10.773849 -2.233965 1.317240 2.226658 8.638872 -0.668639 0.068162 -1.570537 0.351959 -0.285639 1.490521 -0.194997 -0.966869 -6.162051 2.592732 0.000000 0.000000 0.000000 -4.844871 -15.066838 -4.593412 -0.484612 -6.868407 -1.042343 -166.478225 -75.897550 -168.245882 0.000000 0.000000 0.000000 -2.531962 -16.107891 0.880460 25.245554 -14.259360 9.389026 1.777660 -67.990155 -56.719600 0.000000 0.000000 0.000000 0.099400 -19.815125 -12.504734 0.367074 38.522306 8.982892 -4.925668 1.586735 -1.801833 0.000000 0.000000 0.000000 2.088135 -5.851771 1.581312 3.778842 10.990680 0.506285 2.843641 -3.482199 1.906715 0.000000 0.000000 0.000000 
-1807.106812 1038.604004 1049.998047 -9.953454 -1.508650 1.580827 2.501304 9.563505 -0.849243 -0.590252 -1.808439 0.466824 -1.144108 1.703011 -0.221854 -0.771595 -7.339874 2.454044 0.000000 0.000000 0.000000 -5.238922 -20.808106 -3.305198 0.557291 -10.264607 3.070130 -164.738734 -83.904697 -168.084745 0.000000 0.000000 0.000000 -1.940800 -23.741593 -0.593856 23.573531 -18.477427 8.496611 1.544518 -51.492108 -58.486756 0.000000 0.000000 0.000000 0.164041 -23.757494 -13.946290 1.099414 43.319600 10.337511 -5.033561 4.344221 -1.576508 0.000000 0.000000 0.000000 1.536353 -6.674493 1.575463 3.620321 11.163204 -0.193797 2.766549 -3.180393 1.804537 0.000000 0.000000 0.000000 
-1798.650146 1039.134521 1051.124023 -9.137610 0.147634 1.755715 2.497135 9.543004 -0.665792 -1.135831 -1.878586 0.353008 -1.648458 1.755023 -0.070058 -0.701179 -8.722807 2.663909 0.000000 0.000000 0.000000 -2.632513 -23.318219 -3.178410 -1.343148 -11.903420 3.503821 -165.512168 -88.516857 -165.492247 0.000000 0.000000 0.000000 -2.057614 -27.803915 -0.703739 21.525201 -20.244548 5.823786 0.857379 -41.874867 -55.136080 0.000000 0.000000 0.000000 -0.238847 -28.185332 -14.853214 1.728494 47.139234 11.020046 -5.131190 5.326906 -1.454536 0.000000 0.000000 0.000000 0.874163 -8.134245 1.813989 3.578624 11.241875 -1.268917 2.773304 -3.047253 1.772481 0.000000 0.000000 0.000000 
-1786.529907 1039.409790 1053.531982 -8.390434 2.387687 1.854598 2.100870 8.903986 -0.198254 -1.546475 -1.763759 0.107425 -1.783286 1.631804 0.129485 -0.669926 -10.185780 2.932804 0.000000 0.000000 0.000000 1.308699 -24.100647 -4.172894 -3.889865 -12.920118 2.480650 12.715822 -88.139723 17.783083 0.000000 0.000000 0.000000 -2.322008 -30.127844 0.049163 19.279484 -21.217317 1.982316 0.109512 -35.592573 -49.434335 0.000000 0.000000 0.000000 -0.972366 -32.896004 -15.234689 2.281383 50.109521 11.186782 -5.164199 5.283008 -1.389124 0.000000 0.000000 0.000000 0.120983 -9.973794 2.263045 3.652808 11.272166 -2.521495 2.877112 -2.891207 1.777698 0.000000 0.000000 0.000000 
-1772.093140 1039.212280 1056.395996 -8.148392 4.389876 1.935750 1.666915 8.304713 0.164534 -1.728293 -1.605832 -0.074893 -1.691878 1.444443 0.235474 -0.633315 -11.250596 3.092736 0.000000 0.000000 0.000000 4.368700 -25.073675 -5.151218 -5.541182 -14.014770 1.669142 11.426703 -84.415074 19.802511 0.000000 0.000000 0.000000 -2.844941 -32.085294 0.762750 17.685809 -22.215951 -0.899726 -0.241810 -30.885977 -44.194837 0.000000 0.000000 0.000000 -1.503078 -36.590136 -15.196193 2.681088 50.981740 10.953562 -4.855185 5.055737 -1.263183 0.000000 0.000000 0.000000 -0.300562 -11.393539 2.480580 3.847423 11.361771 -3.227134 3.093503 -2.622922 1.812686 0.000000 0.000000 0.000000 
-1754.975464 1038.481201 1059.930054 -8.793886 5.921044 1.905185 1.549095 7.962851 0.261510 -1.620085 -1.539236 -0.107934 -1.492618 1.352203 0.207103 -0.582889 -11.679210 3.066702 0.000000 0.000000 0.000000 5.536312 -27.570444 -5.280944 -5.633843 -15.287913 1.470135 11.027918 -79.000818 19.940861 0.000000 0.000000 0.000000 -3.829339 -33.924559 1.201255 16.943904 -23.508515 -2.182568 -0.373596 -27.235233 -39.962092 0.000000 0.000000 0.000000 -1.487004 -38.623037 -14.654048 2.865008 48.781773 10.344983 -4.034727 4.852090 -1.017815 0.000000 0.000000 0.000000 0.031975 -11.748049 2.076934 4.140635 10.898969 -2.733340 3.454482 -2.108430 1.870586 0.000000 0.000000 0.000000 
